<svg width="30" height="30" viewBox="0 0 30 30" fill="none" xmlns="http://www.w3.org/2000/svg">
<path d="M12.835 26.25C13.0544 26.63 13.37 26.9456 13.75 27.165C14.1301 27.3844 14.5612 27.4999 15 27.4999C15.4388 27.4999 15.8699 27.3844 16.2499 27.165C16.63 26.9456 16.9456 26.63 17.165 26.25" stroke="#0B3251" stroke-width="2" stroke-linecap="round" stroke-linejoin="round"/>
<path d="M17.395 2.89268C16.2668 2.51252 15.0644 2.40638 13.8871 2.58303C12.7098 2.75968 11.5915 3.21405 10.6246 3.90856C9.65766 4.60308 8.86998 5.51779 8.32665 6.57705C7.78333 7.63632 7.49996 8.8097 7.49999 10.0002C7.49999 15.6239 5.73624 17.4452 4.07499 19.1589C3.91196 19.3381 3.8045 19.5608 3.76569 19.7999C3.72688 20.039 3.75839 20.2843 3.85638 20.5058C3.95437 20.7274 4.11463 20.9157 4.31766 21.0478C4.52069 21.18 4.75774 21.2503 4.99999 21.2502H25C25.2422 21.2503 25.4793 21.18 25.6823 21.0478C25.8854 20.9157 26.0456 20.7274 26.1436 20.5058C26.2416 20.2843 26.2731 20.039 26.2343 19.7999C26.1955 19.5608 26.088 19.3381 25.925 19.1589C25.6677 18.894 25.4237 18.6166 25.1937 18.3277" stroke="#0B3251" stroke-width="2" stroke-linecap="round" stroke-linejoin="round"/>
<path d="M22.5 13.75C24.5711 13.75 26.25 12.0711 26.25 10C26.25 7.92893 24.5711 6.25 22.5 6.25C20.4289 6.25 18.75 7.92893 18.75 10C18.75 12.0711 20.4289 13.75 22.5 13.75Z" stroke="#D60000" stroke-width="2" stroke-linecap="round" stroke-linejoin="round"/>
</svg>
