<svg width="24" height="24" viewBox="0 0 24 24" fill="none" xmlns="http://www.w3.org/2000/svg">
<rect width="24" height="24" rx="2" fill="#FFEDD5"/>
<g clip-path="url(#clip0_6194_4056)">
<path d="M6.13867 16.8659H18.1387M7.47201 8.86589C7.47201 8.68907 7.54224 8.51951 7.66727 8.39448C7.79229 8.26946 7.96186 8.19922 8.13867 8.19922H16.1387C16.3155 8.19922 16.4851 8.26946 16.6101 8.39448C16.7351 8.51951 16.8053 8.68907 16.8053 8.86589V14.1992C16.8053 14.376 16.7351 14.5456 16.6101 14.6706C16.4851 14.7956 16.3155 14.8659 16.1387 14.8659H8.13867C7.96186 14.8659 7.79229 14.7956 7.66727 14.6706C7.54224 14.5456 7.47201 14.376 7.47201 14.1992V8.86589Z" stroke="#F97316" stroke-width="1.5" stroke-linecap="round" stroke-linejoin="round"/>
</g>
<defs>
<clipPath id="clip0_6194_4056">
<rect width="16" height="16" fill="white" transform="translate(4.19922 4)"/>
</clipPath>
</defs>
</svg>
