<svg width="21" height="20" viewBox="0 0 21 20" fill="none" xmlns="http://www.w3.org/2000/svg">
<path d="M3.61463 2.54011C3.53968 2.50352 3.45545 2.49037 3.37291 2.50236C3.29038 2.51435 3.21337 2.55093 3.15193 2.60733C3.09049 2.66373 3.04747 2.73734 3.02848 2.81855C3.00949 2.89976 3.01541 2.98481 3.04547 3.06261L5.41463 9.41845C5.55436 9.79364 5.55436 10.2066 5.41463 10.5818L3.0463 16.9376C3.01639 17.0153 3.01055 17.1002 3.02953 17.1813C3.04851 17.2624 3.09144 17.3358 3.15273 17.3922C3.21403 17.4485 3.29085 17.4851 3.37323 17.4973C3.4556 17.5094 3.53971 17.4964 3.61463 17.4601L18.6146 10.3768C18.686 10.343 18.7463 10.2897 18.7885 10.223C18.8307 10.1563 18.8532 10.079 18.8532 10.0001C18.8532 9.92118 18.8307 9.84388 18.7885 9.77719C18.7463 9.71051 18.686 9.65719 18.6146 9.62345L3.61463 2.54011Z" stroke="#111111" stroke-width="2" stroke-linecap="round" stroke-linejoin="round"/>
<path d="M5.51953 10H18.8529" stroke="#111111" stroke-width="1.5" stroke-linecap="round" stroke-linejoin="round"/>
</svg>
